<svg id="Master" xmlns="http://www.w3.org/2000/svg" xmlns:xlink="http://www.w3.org/1999/xlink"
        width="216.872" height="180.174" viewBox="0 0 108.872 88.174">
    <defs>
        <linearGradient id="linear-gradient" x1="0.468" y1="-0.068" x2="0.465" y2="0.963"
                gradientUnits="objectBoundingBox">
            <stop offset="0" stop-opacity="0.11" />
            <stop offset="1" stop-opacity="0" />
        </linearGradient>
        <linearGradient id="linear-gradient-2" x1="1" y1="0.95" x2="0.438" y2="0.391"
                gradientUnits="objectBoundingBox">
            <stop offset="0" stop-color="#fff" />
            <stop offset="1" stop-color="#fff" stop-opacity="0" />
        </linearGradient>
    </defs>
    <g id="Foreground" transform="translate(-62.615 -66.237)">
        <path id="shadow"
                d="M-6.745,1.184l1.808-5.66L17.232-24.171l4.618,1.135L21.857-7.03l24.667-.733L46.463,6.122l5.182,1.96.3,41.41L-6.6,50.589Z"
                transform="translate(98.982 117.87) rotate(-45)" fill="url(#linear-gradient)" />
        <g id="tentacle_left" data-name="tentacle, left" transform="translate(92.615 84.806)">
            <path id="Pfad_3" data-name="Pfad 3" d="M0,16.5a9.5,9.5,0,1,0,19,0"
                    transform="translate(0 13.431)" fill="none" stroke="#cd486b"
                    stroke-linecap="round" stroke-width="5" />
            <path id="Pfad_5" data-name="Pfad 5" d="M0,0V26.5" transform="translate(19 3.431)"
                    fill="none" stroke="#cd486b" stroke-linecap="round" stroke-width="5" />
            <path id="Pfad_4" data-name="Pfad 4" d="M0,0V23.25" transform="translate(0 6.681)"
                    fill="none" stroke="#cd486b" stroke-linecap="round" stroke-width="5" />
            <path id="Pfad_2" data-name="Pfad 2"
                    d="M6.25,3.681a3.591,3.591,0,0,1,1.078-2.6A3.751,3.751,0,0,1,9.931,0"
                    transform="translate(-6.25 3)" fill="none" stroke="#cd486b"
                    stroke-linecap="round" stroke-width="5" />
            <ellipse id="shine" cx="1.5" cy="1" rx="1.5" ry="1"
                    transform="translate(0.718 2.159) rotate(-25)" fill="#fff" opacity="0.3" />
        </g>
        <g id="tentacle_right" data-name="tentacle, right" transform="translate(121.615 70.237)">
            <path id="Pfad_3-2" data-name="Pfad 3" d="M19,16.5a9.5,9.5,0,1,1-19,0"
                    transform="translate(0 28)" fill="none" stroke="#cd486b" stroke-linecap="round"
                    stroke-width="5" />
            <path id="Pfad_5-2" data-name="Pfad 5" d="M0,0V26.5" transform="translate(0 18)"
                    fill="none" stroke="#cd486b" stroke-linecap="round" stroke-width="5" />
            <path id="Pfad_4-2" data-name="Pfad 4" d="M0,0V23.25" transform="translate(19 21.25)"
                    fill="none" stroke="#cd486b" stroke-linecap="round" stroke-width="5" />
            <path id="Pfad_2-2" data-name="Pfad 2"
                    d="M9.931,3.681a3.591,3.591,0,0,0-1.078-2.6A3.751,3.751,0,0,0,6.25,0"
                    transform="translate(9.069 17.569)" fill="none" stroke="#cd486b"
                    stroke-linecap="round" stroke-width="5" />
            <ellipse id="shine-2" data-name="shine" cx="1.5" cy="1" rx="1.5" ry="1"
                    transform="translate(17 17.5) rotate(180)" fill="#fff" opacity="0.3" />
        </g>
        <g id="tentacle_middle" data-name="tentacle, middle" transform="translate(122.114 66.237)">
            <path id="Pfad_6" data-name="Pfad 6" d="M0,0V20" transform="translate(-5.5 36.5)"
                    fill="none" stroke="#cd486b" stroke-width="5" />
            <path id="Pfad_7" data-name="Pfad 7"
                    d="M9.931,3.681a3.591,3.591,0,0,0-1.078-2.6A3.751,3.751,0,0,0,6.25,0"
                    transform="translate(-5.519 50.32) rotate(90)" fill="none" stroke="#cd486b"
                    stroke-linecap="round" stroke-width="5" />
            <ellipse id="shine-3" data-name="shine" cx="1.5" cy="1" rx="1.5" ry="1"
                    transform="translate(-7.701 59.616) rotate(150)" fill="#fff" opacity="0.3" />
        </g>
        <g id="face" transform="translate(-4.617 5.327)">
            <g id="head">
                <ellipse id="oval" cx="15" cy="17.5" rx="15" ry="17.5"
                        transform="translate(106.232 69.911)" fill="#cd486b" />
                <rect id="eyes" width="29" height="9" rx="4.5" transform="translate(106.732 99.911)"
                        fill="#cd486b" />
            </g>
            <g id="eye_left" data-name="eye, left" transform="translate(108.232 101.411)">
                <circle id="Ellipse_1" data-name="Ellipse 1" cx="3" cy="3" r="3" fill="#fff" />
                <circle id="Ellipse_3" data-name="Ellipse 3" cx="2" cy="2" r="2"
                        transform="translate(1 1)" />
                <circle id="Ellipse_2" data-name="Ellipse 2" cx="1" cy="1" r="1"
                        transform="translate(3 1)" fill="#fff" opacity="0.9" />
            </g>
            <g id="eye_right" data-name="eye, right" transform="translate(128.232 101.411)">
                <circle id="Ellipse_1-2" data-name="Ellipse 1" cx="3" cy="3" r="3" fill="#fff" />
                <circle id="Ellipse_3-2" data-name="Ellipse 3" cx="2" cy="2" r="2"
                        transform="translate(1 1)" />
                <circle id="Ellipse_2-2" data-name="Ellipse 2" cx="1" cy="1" r="1"
                        transform="translate(3 1)" fill="#fff" opacity="0.9" />
            </g>
            <path id="shine1"
                    d="M4.813,21.286A12.369,12.369,0,0,1-5.216,15.831a13.882,13.882,0,0,0,3.529.456,14.565,14.565,0,0,0,10.96-5.126,18.586,18.586,0,0,0,4.54-12.375,19.807,19.807,0,0,0-.346-3.694A16.128,16.128,0,0,1,17.814,6.287a16.137,16.137,0,0,1-3.808,10.606A12.111,12.111,0,0,1,4.813,21.286Z"
                    transform="translate(126.232 93.197) rotate(180)" opacity="0.3"
                    fill="url(#linear-gradient-2)" />
        </g>
    </g>
</svg>
