<svg xmlns="http://www.w3.org/2000/svg" width="216" height="180" viewBox="0 0 108 90.004">
  <defs>
    <linearGradient id="linear-gradient" x1="0.468" y1="-0.068" x2="0.465" y2="0.963" gradientUnits="objectBoundingBox">
      <stop offset="0" stop-opacity="0.251"/>
      <stop offset="1" stop-opacity="0"/>
    </linearGradient>
  </defs>
  <g id="Master" transform="translate(-67 -71.996)">
    <g id="Background" transform="translate(0 17.996)">
      <rect id="color" width="108" height="90.004" transform="translate(67 54)" fill="none"/>
    </g>
    <g id="Foreground" transform="translate(4.885 3.763)">
      <path id="shadow" d="M-.651,16.225,49.1-.013l.462,50.864H.174Z" transform="translate(98.982 117.87) rotate(-45)" opacity="0.693" fill="url(#linear-gradient)"/>
      <g id="face" transform="translate(-4.617 -6.673)">
        <circle id="head" cx="22.117" cy="22.117" r="22.117" transform="translate(99.115 85.237)" fill="#ffd9d5" stroke="#997154" stroke-linecap="round" stroke-width="5"/>
        <path id="Differenzmenge_1" d="M42.008,56.085h-.1A59.088,59.088,0,0,0,52.465,41.177a70.044,70.044,0,0,0,5.392-14.9,19.111,19.111,0,0,1-15.849,29.81Z" transform="translate(79.223 70.386)" fill="#facdc8" opacity="0.801"/>
        <path id="beard" d="M9.149,0C14.2,0,18.3,3.473,18.3,7.757S14.2,24.625,9.149,24.625,0,12.042,0,7.757,4.1,0,9.149,0Z" transform="translate(111.95 113.789)" fill="#bc8b68" stroke="#bc8b68" stroke-linecap="round" stroke-width="5"/>
        <path id="hair" d="M30.763,0S26.284,2.884,15.454,2.884,0,0,0,0" transform="translate(105.631 94.339)" fill="none" stroke="#997154" stroke-linecap="round" stroke-width="5"/>
        <line id="mouth" transform="translate(121.232 121.523)" fill="none" stroke="#000" stroke-linecap="round" stroke-width="5"/>
        <g id="eyes">
          <line id="left_eye" y1="1.288" transform="translate(110.928 104.778)" fill="none" stroke="#fff" stroke-linecap="round" stroke-width="6"/>
          <line id="right_eye" y1="1.288" transform="translate(130.248 104.778)" fill="none" stroke="#fff" stroke-linecap="round" stroke-width="6"/>
          <line id="left_eye-2" y1="1.288" transform="translate(110.928 104.778)" fill="none" stroke="#000" stroke-linecap="round" stroke-width="4"/>
          <line id="right_eye-2" y1="1.288" transform="translate(130.248 104.778)" fill="none" stroke="#000" stroke-linecap="round" stroke-width="4"/>
          <line id="left_eye-3" y1="0.002" transform="translate(111.928 104.064)" fill="none" stroke="#fff" stroke-linecap="round" stroke-width="2"/>
          <line id="right_eye-3" y1="0.002" transform="translate(131.248 104.064)" fill="none" stroke="#fff" stroke-linecap="round" stroke-width="2"/>
        </g>
      </g>
    </g>
  </g>
</svg>
