<svg id="Symbol_1" data-name="Symbol 1" xmlns="http://www.w3.org/2000/svg"
        xmlns:xlink="http://www.w3.org/1999/xlink" width="216.872" height="180.174"
        viewBox="0 0 108.872 88.174">
    <defs>
        <linearGradient id="linear-gradient" x1="0.468" y1="-0.068" x2="0.465" y2="0.963"
                gradientUnits="objectBoundingBox">
            <stop offset="0" stop-opacity="0.22" />
            <stop offset="1" stop-opacity="0" />
        </linearGradient>
    </defs>
    <g id="Foreground" transform="translate(-62.615 -66.237)">
        <path id="shadow"
                d="M-6.745,1.184l1.808-5.66L17.232-24.171l4.618,1.135L21.857-7.03l24.667-.733L46.463,6.122l5.182,1.96.3,41.41L-6.6,50.589Z"
                transform="translate(98.982 117.87) rotate(-45)" fill="url(#linear-gradient)" />
        <g id="tentacle_left" data-name="tentacle, left" transform="translate(92.615 84.806)">
            <path id="Pfad_3" data-name="Pfad 3" d="M0,16.5a9.5,9.5,0,1,0,19,0"
                    transform="translate(0 13.431)" fill="none" stroke="#cd486b"
                    stroke-linecap="round" stroke-width="5" />
            <path id="Pfad_5" data-name="Pfad 5" d="M0,0V26.5" transform="translate(19 3.431)"
                    fill="none" stroke="#cd486b" stroke-linecap="round" stroke-width="5" />
            <path id="Pfad_4" data-name="Pfad 4" d="M0,0V23.25" transform="translate(0 6.681)"
                    fill="none" stroke="#cd486b" stroke-linecap="round" stroke-width="5" />
            <path id="Pfad_2" data-name="Pfad 2"
                    d="M6.25,3.681a3.591,3.591,0,0,1,1.078-2.6A3.751,3.751,0,0,1,9.931,0"
                    transform="translate(-6.25 3)" fill="none" stroke="#cd486b"
                    stroke-linecap="round" stroke-width="5" />
            <ellipse id="shine" cx="1.5" cy="1" rx="1.5" ry="1"
                    transform="translate(4.616 0.632) rotate(60)" fill="#fff" opacity="0.3" />
        </g>
        <g id="tentacle_right" data-name="tentacle, right" transform="translate(121.615 70.237)">
            <path id="Pfad_3-2" data-name="Pfad 3" d="M19,16.5a9.5,9.5,0,1,1-19,0"
                    transform="translate(0 28)" fill="none" stroke="#cd486b" stroke-linecap="round"
                    stroke-width="5" />
            <path id="Pfad_5-2" data-name="Pfad 5" d="M0,0V26.5" transform="translate(0 18)"
                    fill="none" stroke="#cd486b" stroke-linecap="round" stroke-width="5" />
            <path id="Pfad_4-2" data-name="Pfad 4" d="M0,0V23.25" transform="translate(19 21.25)"
                    fill="none" stroke="#cd486b" stroke-linecap="round" stroke-width="5" />
            <path id="Pfad_2-2" data-name="Pfad 2"
                    d="M9.931,3.681a3.591,3.591,0,0,0-1.078-2.6A3.751,3.751,0,0,0,6.25,0"
                    transform="translate(9.069 17.569)" fill="none" stroke="#cd486b"
                    stroke-linecap="round" stroke-width="5" />
            <ellipse id="shine-2" data-name="shine" cx="1.5" cy="1" rx="1.5" ry="1"
                    transform="translate(17 17.5) rotate(180)" fill="#fff" opacity="0.3" />
        </g>
        <g id="tentacle_middle" data-name="tentacle, middle" transform="translate(122.114 66.237)">
            <path id="Pfad_6" data-name="Pfad 6" d="M0,0V20" transform="translate(-5.5 36.5)"
                    fill="none" stroke="#cd486b" stroke-width="5" />
            <path id="Pfad_7" data-name="Pfad 7"
                    d="M9.931,3.681a3.591,3.591,0,0,0-1.078-2.6A3.751,3.751,0,0,0,6.25,0"
                    transform="translate(-5.519 50.32) rotate(90)" fill="none" stroke="#cd486b"
                    stroke-linecap="round" stroke-width="5" />
            <ellipse id="shine-3" data-name="shine" cx="1.5" cy="1" rx="1.5" ry="1"
                    transform="translate(-7.701 59.616) rotate(150)" fill="#fff" opacity="0.3" />
        </g>
        <g id="face" transform="translate(-4.617 5.327)">
            <g id="head">
                <ellipse id="oval" cx="15" cy="17.5" rx="15" ry="17.5"
                        transform="translate(106.232 69.911)" fill="#cd486b" />
                <rect id="eyes" width="29" height="9" rx="4.5" transform="translate(106.732 99.911)"
                        fill="#cd486b" />
            </g>
            <g id="eye_left" data-name="eye, left" transform="translate(108.232 101.411)">
                <circle id="Ellipse_1" data-name="Ellipse 1" cx="3" cy="3" r="3" fill="#fff" />
                <circle id="Ellipse_3" data-name="Ellipse 3" cx="2" cy="2" r="2"
                        transform="translate(1 1)" />
                <circle id="Ellipse_2" data-name="Ellipse 2" cx="1" cy="1" r="1"
                        transform="translate(3 1)" fill="#fff" opacity="0.9" />
            </g>
            <g id="eye_right" data-name="eye, right" transform="translate(128.232 101.411)">
                <circle id="Ellipse_1-2" data-name="Ellipse 1" cx="3" cy="3" r="3" fill="#fff" />
                <circle id="Ellipse_3-2" data-name="Ellipse 3" cx="2" cy="2" r="2"
                        transform="translate(1 1)" />
                <circle id="Ellipse_2-2" data-name="Ellipse 2" cx="1" cy="1" r="1"
                        transform="translate(3 1)" fill="#fff" opacity="0.9" />
            </g>
            <path id="shine-4" data-name="shine"
                    d="M-159.961,202.2h0a19.931,19.931,0,0,0,.2-2.786,18.584,18.584,0,0,0-4.54-12.374,14.565,14.565,0,0,0-10.96-5.125c-.438,0-.88.021-1.314.062a11.439,11.439,0,0,1,4.814-1.062,12.11,12.11,0,0,1,9.192,4.393,16.137,16.137,0,0,1,3.808,10.606A16.823,16.823,0,0,1-159.961,202.2Z"
                    transform="translate(293 -109)" fill="#fff" opacity="0.3" />
        </g>
    </g>
</svg>
